<svg width="24" height="24" viewBox="0 0 24 24" fill="none" xmlns="http://www.w3.org/2000/svg">
<mask id="mask0_5130_29607" style="mask-type:alpha" maskUnits="userSpaceOnUse" x="0" y="0" width="24" height="24">
<rect width="24" height="24" fill="#D9D9D9"/>
</mask>
<g mask="url(#mask0_5130_29607)">
<path d="M8.45 16.85L12 13.3L15.55 16.85L16.85 15.55L13.3 12L16.85 8.45L15.55 7.15L12 10.7L8.45 7.15L7.15 8.45L10.7 12L7.15 15.55L8.45 16.85ZM12 21.75C10.65 21.75 9.38333 21.4917 8.2 20.975C7.01667 20.4583 5.98767 19.7623 5.113 18.887C4.23767 18.0123 3.54167 16.9833 3.025 15.8C2.50833 14.6167 2.25 13.35 2.25 12C2.25 10.65 2.50833 9.38333 3.025 8.2C3.54167 7.01667 4.23767 5.98333 5.113 5.1C5.98767 4.21667 7.01667 3.52067 8.2 3.012C9.38333 2.504 10.65 2.25 12 2.25C13.35 2.25 14.6167 2.50833 15.8 3.025C16.9833 3.54167 18.0167 4.23733 18.9 5.112C19.7833 5.98733 20.4793 7.01667 20.988 8.2C21.496 9.38333 21.75 10.65 21.75 12C21.75 13.35 21.4917 14.6167 20.975 15.8C20.4583 16.9833 19.7627 18.0123 18.888 18.887C18.0127 19.7623 16.9833 20.4583 15.8 20.975C14.6167 21.4917 13.35 21.75 12 21.75Z" fill="#142630"/>
</g>
</svg>
